<svg xmlns="http://www.w3.org/2000/svg" viewBox="0 0 32 32"><title>86-Real Estate-Plan</title><g id="_86-Real_Estate-Plan" data-name="86-Real Estate-Plan"><path d="M17,6H13.62l-.72-1.45A1,1,0,0,0,12,4H10V0H8V4H6a1,1,0,0,0-.89.55L4.38,6H1A1,1,0,0,0,0,7V31a1,1,0,0,0,1,1H17a1,1,0,0,0,1-1V7A1,1,0,0,0,17,6ZM16,30H2V8H16Z"/><path d="M5,12a1,1,0,0,0-1,1v4a1,1,0,0,0,1,1h8a1,1,0,0,0,1-1V13a1,1,0,0,0-1-1Zm1,2H8v2H6Zm6,2H10V14h2Z"/><path d="M13,20H5a1,1,0,0,0-1,1v4a1,1,0,0,0,1,1h8a1,1,0,0,0,1-1V21A1,1,0,0,0,13,20ZM6,22H8v2H6Zm6,2H10V22h2Z"/><path d="M29,0H13V2H29a1,1,0,0,1,1,1V15H27V8a1,1,0,0,0-1-1H22V9h3v6H23a1,1,0,0,0-1,1v4h2V17h6v6H25a2,2,0,0,0-2,2v5H20v2h4a1,1,0,0,0,.71-.29l7-7A1,1,0,0,0,32,24V3A3,3,0,0,0,29,0Z"/></g></svg>